<svg id="_logo-color-stacked" data-name="🌕 logo-color-stacked" xmlns="http://www.w3.org/2000/svg" xmlns:xlink="http://www.w3.org/1999/xlink" width="200" height="227.367" viewBox="0 0 200 227.367">
  <defs>
    <radialGradient id="radial-gradient" cx="0.081" cy="0.093" r="1.09" gradientTransform="translate(0 -0.008) scale(1 1.351)" gradientUnits="objectBoundingBox">
      <stop offset="0" stop-color="#0590cc"/>
      <stop offset="1" stop-color="#54cbff"/>
    </radialGradient>
    <clipPath id="clip-path">
      <path id="mask" d="M135.617,102.226l-100-57.734,100,173.2,99.994-173.2Z" transform="translate(-35.619 -44.492)" fill="none"/>
    </clipPath>
    <radialGradient id="radial-gradient-2" cx="0.572" cy="0.464" r="0.408" gradientTransform="translate(0 -0.173) scale(1 1.435)" gradientUnits="objectBoundingBox">
      <stop offset="0" stop-color="#56c59c"/>
      <stop offset="0.325" stop-color="#56c59c"/>
      <stop offset="1" stop-color="#0590cc"/>
    </radialGradient>
    <radialGradient id="radial-gradient-3" cx="0.5" cy="0.352" r="0.305" gradientTransform="translate(0 -0.07) scale(1 1.199)" gradientUnits="objectBoundingBox">
      <stop offset="0" stop-color="#00b0ed"/>
      <stop offset="0.175" stop-color="#00aeea"/>
      <stop offset="1" stop-color="#00afec" stop-opacity="0"/>
    </radialGradient>
    <radialGradient id="radial-gradient-4" cx="0.5" cy="0.285" r="0.487" gradientTransform="translate(0 -0.061) scale(1 1.174)" gradientUnits="objectBoundingBox">
      <stop offset="0" stop-color="#0590cc" stop-opacity="0"/>
      <stop offset="0.276" stop-color="#0590cc" stop-opacity="0.275"/>
      <stop offset="1" stop-color="#201894"/>
    </radialGradient>
    <clipPath id="clip-path-2">
      <path id="mask-2" data-name="mask" d="M87.583,159.381v58.307l99.994-173.2Z" transform="translate(-87.583 -44.492)" fill="none"/>
    </clipPath>
    <radialGradient id="radial-gradient-5" cx="0.5" cy="0.5" r="0.5" gradientUnits="objectBoundingBox">
      <stop offset="0" stop-color="#fff"/>
      <stop offset="1" stop-color="#fff" stop-opacity="0"/>
    </radialGradient>
    <clipPath id="clip-path-3">
      <path id="mask-3" data-name="mask" d="M135.618,217.688V159.381L35.62,44.492Z" transform="translate(-35.62 -44.492)" fill="none"/>
    </clipPath>
    <radialGradient id="radial-gradient-8" cx="0.5" cy="0.5" r="0.5" gradientUnits="objectBoundingBox">
      <stop offset="0" stop-color="#67cbff"/>
      <stop offset="1" stop-color="#67cbff" stop-opacity="0"/>
    </radialGradient>
    <radialGradient id="radial-gradient-9" cx="0.5" cy="0.5" r="0.5" gradientUnits="objectBoundingBox">
      <stop offset="0" stop-color="#fff"/>
      <stop offset="0.59" stop-color="#c5daff" stop-opacity="0.737"/>
      <stop offset="1" stop-color="#2474ff" stop-opacity="0"/>
    </radialGradient>
    <clipPath id="clip-path-4">
      <path id="mask-4" data-name="mask" d="M85.618,131.09l16.889-9.751L35.62,44.492Z" transform="translate(-35.62 -44.492)" fill="none"/>
    </clipPath>
    <radialGradient id="radial-gradient-10" cx="0.5" cy="0.5" r="0.5" gradientUnits="objectBoundingBox">
      <stop offset="0" stop-color="#38b8e6"/>
      <stop offset="1" stop-color="#2bb8e8" stop-opacity="0"/>
    </radialGradient>
    <clipPath id="clip-path-5">
      <path id="mask-5" data-name="mask" d="M187.577,44.492l-100,57.732v57.155Z" transform="translate(-87.581 -44.492)" fill="#0590cc"/>
    </clipPath>
    <radialGradient id="radial-gradient-12" cx="0.5" cy="0.5" r="0.5" gradientUnits="objectBoundingBox">
      <stop offset="0" stop-color="#0dc6ff"/>
      <stop offset="1" stop-color="#17c9ff" stop-opacity="0"/>
    </radialGradient>
    <clipPath id="clip-path-6">
      <path id="mask-6" data-name="mask" d="M120.686,93.607l-33.1,38.04V74.492Z" transform="translate(-87.586 -74.492)" fill="#8ddcff" opacity="0.16"/>
    </clipPath>
    <radialGradient id="radial-gradient-13" cx="1.093" cy="0.246" r="0.939" gradientTransform="translate(0 0.213) scale(1 0.386)" gradientUnits="objectBoundingBox">
      <stop offset="0" stop-color="#8ddcff"/>
      <stop offset="1" stop-color="#68cfff" stop-opacity="0"/>
    </radialGradient>
    <clipPath id="clip-path-7">
      <path id="mask-7" data-name="mask" d="M70.377,93.606l33.1,38.042V74.493Z" transform="translate(-70.377 -74.493)" fill="none"/>
    </clipPath>
    <radialGradient id="radial-gradient-14" cx="0.5" cy="0.5" r="0.5" gradientUnits="objectBoundingBox">
      <stop offset="0" stop-color="#a4ebff"/>
      <stop offset="1" stop-color="#acedff" stop-opacity="0"/>
    </radialGradient>
    <clipPath id="clip-path-8">
      <path id="mask-8" data-name="mask" d="M102.512,121.339l33.1-19.115-100-57.732Z" transform="translate(-35.616 -44.492)" opacity="0.53" fill="url(#radial-gradient)"/>
    </clipPath>
    <radialGradient id="radial-gradient-16" cx="0.5" cy="0.5" r="0.5" gradientUnits="objectBoundingBox">
      <stop offset="0" stop-color="#60dcff"/>
      <stop offset="1" stop-color="#60dcff" stop-opacity="0"/>
    </radialGradient>
  </defs>
  <g id="_logo-color-mark" data-name="🌕 logo-color-mark">
    <g id="mark">
      <g id="v-full" transform="translate(0.007)" clip-path="url(#clip-path)">
        <path id="fill" d="M135.615,102.224l-100-57.732,100,173.2,100-173.2Z" transform="translate(-35.619 -44.492)" fill="url(#radial-gradient-2)"/>
        <path id="fill-2" data-name="fill" d="M135.615,102.224l-100-57.732,100,173.2,100-173.2Z" transform="translate(-35.619 -44.492)" opacity="0.7" fill="url(#radial-gradient-3)"/>
        <path id="fill-3" data-name="fill" d="M135.615,102.224l-100-57.732,100,173.2,100-173.2Z" transform="translate(-35.619 -44.492)" opacity="0.5" fill="url(#radial-gradient-4)" style="mix-blend-mode: multiply;isolation: isolate"/>
      </g>
      <g id="btm-right-full" transform="translate(100.006)" clip-path="url(#clip-path-2)">
        <path id="fill-4" data-name="fill" d="M87.583,159.379v58.309l100-173.2Z" transform="translate(-87.584 -44.492)" fill="#fff" opacity="0.35" style="mix-blend-mode: overlay;isolation: isolate"/>
        <path id="fill-5" data-name="fill" d="M87.583,159.379v58.309l100-173.2Z" transform="translate(-87.584 -44.492)" fill="#fff" opacity="0.1"/>
        <ellipse id="gradient" cx="31.015" cy="144.397" rx="31.015" ry="144.397" transform="translate(78.82 -67.113) rotate(32)" opacity="0.6" fill="url(#radial-gradient-5)"/>
        <ellipse id="gradient-2" data-name="gradient" cx="14.658" cy="84.74" rx="14.658" ry="84.74" transform="matrix(0.875, 0.485, -0.485, 0.875, 84.893, 1.83)" opacity="0.45" fill="url(#radial-gradient-5)"/>
        <ellipse id="gradient-3" data-name="gradient" cx="45.206" cy="59.672" rx="45.206" ry="59.672" transform="matrix(0.99, 0.139, -0.139, 0.99, -56.752, 73.475)" opacity="0.5" fill="url(#radial-gradient-5)" style="mix-blend-mode: hard-light;isolation: isolate"/>
      </g>
      <path id="btm-right-half" d="M121.675,131.09l-16.889-9.751,66.886-76.847Z" transform="translate(28.326 -44.49)" fill="#fff" opacity="0.16"/>
      <g id="btm-left-full" transform="translate(0.009)" clip-path="url(#clip-path-3)">
        <path id="fill-6" data-name="fill" d="M135.616,217.689V159.379l-100-114.887Z" transform="translate(-35.62 -44.492)" fill="#0590cc" opacity="0.5"/>
        <ellipse id="gradient-4" data-name="gradient" cx="25.017" cy="105.909" rx="25.017" ry="105.909" transform="matrix(0.891, -0.454, 0.454, 0.891, -28.068, -11.31)" opacity="0.62" fill="url(#radial-gradient-8)" style="mix-blend-mode: overlay;isolation: isolate"/>
        <ellipse id="gradient-5" data-name="gradient" cx="30.808" cy="84.176" rx="30.808" ry="84.176" transform="matrix(0.891, -0.454, 0.454, 0.891, -28.607, 30.677)" opacity="0.62" fill="url(#radial-gradient-9)"/>
      </g>
      <g id="btm-left-half" transform="translate(0.009)" clip-path="url(#clip-path-4)">
        <path id="fill-7" data-name="fill" d="M85.618,131.09l16.888-9.751L35.621,44.492Z" transform="translate(-35.62 -44.492)" fill="#64daff" opacity="0.08"/>
        <ellipse id="gradient-6" data-name="gradient" cx="57.732" cy="64.534" rx="57.732" ry="64.534" transform="translate(-68.048 -14.162) rotate(-31)" opacity="0.87" fill="url(#radial-gradient-10)"/>
        <ellipse id="gradient-7" data-name="gradient" cx="29.919" cy="39.855" rx="29.919" ry="39.855" transform="translate(16.626 51.267) rotate(-31)" opacity="0.21" fill="url(#radial-gradient-5)"/>
      </g>
      <g id="top-right" transform="translate(100.004 0.002)" clip-path="url(#clip-path-5)">
        <path id="mask-9" data-name="mask" d="M187.577,44.492l-100,57.732v57.155Z" transform="translate(-87.581 -44.492)" fill="#aee7ff" opacity="0.3"/>
        <ellipse id="gradient-8" data-name="gradient" cx="45.314" cy="73.442" rx="45.314" ry="73.442" transform="matrix(0.629, 0.777, -0.777, 0.629, 38.118, -53.963)" fill="url(#radial-gradient-12)"/>
      </g>
      <g id="top-right-mid" transform="translate(100.013 57.734)" clip-path="url(#clip-path-6)">
        <path id="gradient-9" data-name="gradient" d="M120.686,93.607l-33.1,38.04V74.492Z" transform="translate(-87.586 -74.492)" opacity="0.49" fill="url(#radial-gradient-13)"/>
      </g>
      <g id="top-left-mid" transform="translate(66.896 57.734)" clip-path="url(#clip-path-7)">
        <path id="fill-8" data-name="fill" d="M70.378,93.607l33.1,38.04V74.492Z" transform="translate(-70.377 -74.494)" fill="#1ec9ff" opacity="0.2"/>
        <ellipse id="gradient-10" data-name="gradient" cx="40.124" cy="40.776" rx="40.124" ry="40.776" transform="translate(-45.897 -39.562)" opacity="0.67" fill="url(#radial-gradient-14)"/>
        <path id="fill-9" data-name="fill" d="M70.378,93.607l33.1,38.04V74.492Z" transform="translate(-70.377 -74.494)" fill="#fff" opacity="0.1"/>
      </g>
      <g id="top-left" transform="translate(0 0.002)" clip-path="url(#clip-path-8)">
        <path id="top-left-2" data-name="top-left" d="M102.512,121.339l33.1-19.115-100-57.732Z" transform="translate(-35.616 -44.492)" opacity="0.3" fill="url(#radial-gradient)"/>
        <path id="top-left-3" data-name="top-left" d="M102.512,121.339l33.1-19.115-100-57.732Z" transform="translate(-35.616 -44.492)" fill="#8ed8ff" opacity="0.24" style="mix-blend-mode: screen;isolation: isolate"/>
        <ellipse id="gradient-11" data-name="gradient" cx="40.124" cy="40.776" rx="40.124" ry="40.776" transform="translate(53.712 4.919)" opacity="0.3" fill="url(#radial-gradient-16)"/>
      </g>
    </g>
  </g>
  <g id="text" transform="translate(-219.283 46.654)">
    <path id="Path_14183" data-name="Path 14183" d="M288.126,171.93l-9.777-30.217h-8.065l13.755,39H292.1l13.755-39H297.9Z" transform="translate(0)" fill="#3c3c3c"/>
    <rect id="Rectangle_16968" data-name="Rectangle 16968" width="7.402" height="38.668" transform="translate(311.438 141.713)" fill="#3c3c3c"/>
    <path id="Path_14184" data-name="Path 14184" d="M418.384,141.713l-9.557,29.222-9.5-29.222H388.941l-1.989,38.668h6.96l1.381-29.83,9.832,29.885h7.237l9.889-29.774,1.326,29.719h7.347l-1.989-38.668Z" transform="translate(-62.036 0)" fill="#3c3c3c"/>
    <path id="Path_14185" data-name="Path 14185" d="M489.7,217.762h1.09v2.723h.922v-2.723H492.8v-.8h-3.1Z" transform="translate(-116.668 -40.011)" fill="#3c3c3c"/>
    <path id="Path_14186" data-name="Path 14186" d="M499.941,216.96l-.7,2.239-.7-2.239H497.31l-.182,3.524h.862l.106-2.239.71,2.239h.863l.712-2.239.106,2.239h.892l-.2-3.524Z" transform="translate(-120.62 -40.011)" fill="#3c3c3c"/>
  </g>
</svg>
