<svg id="_logo-white-stacked" data-name="🌑 logo-white-stacked" xmlns="http://www.w3.org/2000/svg" xmlns:xlink="http://www.w3.org/1999/xlink" width="385.376" height="438.001" viewBox="0 0 385.376 438.001">
  <defs>
    <style>
      .cls-1, .cls-10, .cls-13, .cls-14, .cls-17, .cls-2, .cls-5, .cls-8 {
        fill: #fff;
      }

      .cls-2 {
        opacity: 0.4;
      }

      .cls-3 {
        clip-path: url(#clip-path);
      }

      .cls-4 {
        opacity: 0.8;
      }

      .cls-12, .cls-16, .cls-4, .cls-7 {
        fill: url(#radial-gradient);
      }

      .cls-5 {
        opacity: 0.5;
      }

      .cls-6 {
        clip-path: url(#clip-path-2);
      }

      .cls-8 {
        opacity: 0.65;
      }

      .cls-9 {
        clip-path: url(#clip-path-3);
      }

      .cls-10 {
        opacity: 0.2;
      }

      .cls-11 {
        clip-path: url(#clip-path-4);
      }

      .cls-12 {
        opacity: 0.6;
      }

      .cls-13 {
        opacity: 0.1;
      }

      .cls-14 {
        opacity: 0.3;
      }

      .cls-15 {
        clip-path: url(#clip-path-5);
      }

      .cls-16 {
        opacity: 0.85;
      }

      .cls-17 {
        opacity: 0.15;
      }
    </style>
    <clipPath id="clip-path">
      <path id="V-Solid" class="cls-1" d="M254.219,196.03,61.531,84.783,254.219,418.526,446.906,84.783Z" transform="translate(-61.531 -84.783)"/>
    </clipPath>
    <radialGradient id="radial-gradient" cx="0.5" cy="0.5" r="0.5" gradientUnits="objectBoundingBox">
      <stop offset="0" stop-color="#fff"/>
      <stop offset="0.925" stop-color="#fff" stop-opacity="0"/>
      <stop offset="1" stop-color="#fff" stop-opacity="0"/>
    </radialGradient>
    <clipPath id="clip-path-2">
      <path id="R-B-Full" class="cls-1" d="M158.882,306.165V418.526L351.57,84.783Z" transform="translate(-158.882 -84.783)"/>
    </clipPath>
    <clipPath id="clip-path-3">
      <path id="Mask" class="cls-1" d="M157.874,251.654l32.544-18.79L61.531,84.783Z" transform="translate(-61.531 -84.783)"/>
    </clipPath>
    <clipPath id="clip-path-4">
      <path id="B-L-Full" class="cls-1" d="M254.219,418.526V306.165L61.531,84.783Z" transform="translate(-61.531 -84.783)"/>
    </clipPath>
    <clipPath id="clip-path-5">
      <path id="Mask-2" data-name="Mask" class="cls-2" d="M126.649,177.823l63.8,73.3V140.988Z" transform="translate(-126.649 -140.988)"/>
    </clipPath>
  </defs>
  <g id="VIM" transform="translate(100.743 364.779)">
    <path id="Path_14183" data-name="Path 14183" class="cls-1" d="M303.782,198.445l-18.357-56.732H270.284l25.824,73.221H311.25l25.824-73.221H322.14Z" transform="translate(-270.284 -141.713)"/>
    <rect id="Rectangle_16968" data-name="Rectangle 16968" class="cls-1" width="13.898" height="72.599" transform="translate(77.266 0)"/>
    <path id="Path_14184" data-name="Path 14184" class="cls-1" d="M445.965,141.713l-17.942,54.864-17.838-54.864h-19.5l-3.734,72.6H400.02l2.593-56,18.46,56.108H434.66l18.565-55.9,2.489,55.8h13.793l-3.734-72.6Z" transform="translate(-284.381 -141.713)"/>
    <path id="Path_14185" data-name="Path 14185" class="cls-1" d="M489.7,218.465h2.046v5.111h1.731v-5.111h2.045V216.96H489.7Z" transform="translate(-296.796 -150.805)"/>
    <path id="Path_14186" data-name="Path 14186" class="cls-1" d="M502.41,216.96l-1.307,4.2-1.305-4.2h-2.329l-.341,6.617h1.619l.2-4.2,1.334,4.2H501.9l1.336-4.2.2,4.2h1.675l-.369-6.617Z" transform="translate(-297.694 -150.805)"/>
  </g>
  <g id="_logo-white-mark" data-name="🌑 logo-white-mark">
    <g id="Mark">
      <g id="Background" class="cls-3" transform="translate(0 0.001)">
        <ellipse id="Gradient" class="cls-4" cx="131.624" cy="184.076" rx="131.624" ry="184.076" transform="translate(60.308 -82.702)"/>
        <path id="V-Solid-2" data-name="V-Solid" class="cls-5" d="M254.219,196.03,61.531,84.783,254.219,418.526,446.906,84.783Z" transform="translate(-61.531 -84.783)"/>
      </g>
      <g id="B-R-Full" class="cls-6" transform="translate(192.688 0.001)">
        <ellipse id="Gradient-2" data-name="Gradient" class="cls-7" cx="88.079" cy="298.876" rx="88.079" ry="298.876" transform="translate(121.273 -129.961) rotate(30)"/>
        <path id="R-B-Full-2" data-name="R-B-Full" class="cls-5" d="M158.882,306.165V418.526L351.57,84.783Z" transform="translate(-158.882 -84.783)"/>
      </g>
      <path id="B-R-Half" class="cls-8" d="M223.659,251.654l-32.544-18.79L320,84.783Z" transform="translate(65.372 -84.783)"/>
      <g id="B-L-Half" class="cls-9" transform="translate(0.001 0)">
        <ellipse id="Gradient-3" data-name="Gradient" class="cls-4" cx="121.254" cy="192.111" rx="121.254" ry="192.111" transform="translate(-188.49 -101.261) rotate(-27)"/>
        <path id="B-L-Half-2" data-name="B-L-Half" class="cls-10" d="M157.874,251.654l32.544-18.79L61.531,84.783Z" transform="translate(-61.531 -84.783)"/>
      </g>
      <g id="B-L-Full-2" data-name="B-L-Full" class="cls-11" transform="translate(0 0.001)">
        <ellipse id="Gradient-4" data-name="Gradient" class="cls-12" cx="63.854" cy="275.124" rx="63.854" ry="275.124" transform="matrix(0.866, -0.5, 0.5, 0.866, -87.198, -20.902)"/>
        <path id="B-L-Full-3" data-name="B-L-Full" class="cls-13" d="M254.219,418.526V306.165L61.531,84.783Z" transform="translate(-61.531 -84.783)"/>
      </g>
      <path id="T-R-Full" class="cls-2" d="M351.569,84.783,158.881,196.03V306.166Z" transform="translate(33.806 -84.783)"/>
      <path id="T-R-Mid" class="cls-14" d="M222.681,177.823l-63.8,73.3V140.988Z" transform="translate(33.806 -29.74)"/>
      <g id="T-L-Mid" class="cls-15" transform="translate(128.889 111.248)">
        <ellipse id="Gradient-5" data-name="Gradient" class="cls-16" cx="80.03" cy="78.912" rx="80.03" ry="78.912" transform="translate(-62.382 -58.379)"/>
        <path id="T-L-Mid-2" data-name="T-L-Mid" class="cls-17" d="M126.649,177.823l63.8,73.3V140.988Z" transform="translate(-126.649 -140.988)"/>
      </g>
      <path id="T-L-Full" class="cls-2" d="M190.42,232.865l63.8-36.835L61.531,84.783Z" transform="translate(-61.531 -84.782)"/>
    </g>
  </g>
</svg>
