<svg id="_logo-color-landscape" data-name="🌕 logo-color-landscape" xmlns="http://www.w3.org/2000/svg" xmlns:xlink="http://www.w3.org/1999/xlink" width="311.891" height="116" viewBox="0 0 311.891 116">
  <defs>
    <radialGradient id="radial-gradient" cx="0.081" cy="0.093" r="1.09" gradientTransform="translate(0 -0.008) scale(1 1.351)" gradientUnits="objectBoundingBox">
      <stop offset="0" stop-color="#0590cc"/>
      <stop offset="1" stop-color="#54cbff"/>
    </radialGradient>
    <clipPath id="clip-path">
      <path id="mask" d="M103.085,83.16,35.619,44.492l67.466,116,67.463-116Z" transform="translate(-35.619 -44.492)" fill="none"/>
    </clipPath>
    <radialGradient id="radial-gradient-2" cx="0.572" cy="0.464" r="0.408" gradientTransform="translate(0 -0.173) scale(1 1.435)" gradientUnits="objectBoundingBox">
      <stop offset="0" stop-color="#56c59c"/>
      <stop offset="0.325" stop-color="#56c59c"/>
      <stop offset="1" stop-color="#0590cc"/>
    </radialGradient>
    <radialGradient id="radial-gradient-3" cx="0.5" cy="0.352" r="0.305" gradientTransform="translate(0 -0.07) scale(1 1.199)" gradientUnits="objectBoundingBox">
      <stop offset="0" stop-color="#00b0ed"/>
      <stop offset="0.175" stop-color="#00aeea"/>
      <stop offset="1" stop-color="#00afec" stop-opacity="0"/>
    </radialGradient>
    <radialGradient id="radial-gradient-4" cx="0.5" cy="0.285" r="0.487" gradientTransform="translate(0 -0.061) scale(1 1.174)" gradientUnits="objectBoundingBox">
      <stop offset="0" stop-color="#0590cc" stop-opacity="0"/>
      <stop offset="0.276" stop-color="#0590cc" stop-opacity="0.275"/>
      <stop offset="1" stop-color="#201894"/>
    </radialGradient>
    <clipPath id="clip-path-2">
      <path id="mask-2" data-name="mask" d="M87.583,121.44v39.052l67.463-116Z" transform="translate(-87.583 -44.492)" fill="none"/>
    </clipPath>
    <radialGradient id="radial-gradient-5" cx="0.5" cy="0.5" r="0.5" gradientUnits="objectBoundingBox">
      <stop offset="0" stop-color="#fff"/>
      <stop offset="1" stop-color="#fff" stop-opacity="0"/>
    </radialGradient>
    <clipPath id="clip-path-3">
      <path id="mask-3" data-name="mask" d="M103.086,160.492V121.44L35.62,44.492Z" transform="translate(-35.62 -44.492)" fill="none"/>
    </clipPath>
    <radialGradient id="radial-gradient-8" cx="0.5" cy="0.5" r="0.5" gradientUnits="objectBoundingBox">
      <stop offset="0" stop-color="#67cbff"/>
      <stop offset="1" stop-color="#67cbff" stop-opacity="0"/>
    </radialGradient>
    <radialGradient id="radial-gradient-9" cx="0.5" cy="0.5" r="0.5" gradientUnits="objectBoundingBox">
      <stop offset="0" stop-color="#fff"/>
      <stop offset="0.59" stop-color="#c5daff" stop-opacity="0.737"/>
      <stop offset="1" stop-color="#2474ff" stop-opacity="0"/>
    </radialGradient>
    <clipPath id="clip-path-4">
      <path id="mask-4" data-name="mask" d="M69.352,102.492l11.394-6.531L35.62,44.492Z" transform="translate(-35.62 -44.492)" fill="none"/>
    </clipPath>
    <radialGradient id="radial-gradient-10" cx="0.5" cy="0.5" r="0.5" gradientUnits="objectBoundingBox">
      <stop offset="0" stop-color="#38b8e6"/>
      <stop offset="1" stop-color="#2bb8e8" stop-opacity="0"/>
    </radialGradient>
    <clipPath id="clip-path-5">
      <path id="mask-5" data-name="mask" d="M155.046,44.492,87.581,83.159v38.28Z" transform="translate(-87.581 -44.492)" fill="#0590cc"/>
    </clipPath>
    <radialGradient id="radial-gradient-12" cx="0.5" cy="0.5" r="0.5" gradientUnits="objectBoundingBox">
      <stop offset="0" stop-color="#0dc6ff"/>
      <stop offset="1" stop-color="#17c9ff" stop-opacity="0"/>
    </radialGradient>
    <clipPath id="clip-path-6">
      <path id="mask-6" data-name="mask" d="M109.918,87.295,87.586,112.772V74.492Z" transform="translate(-87.586 -74.492)" fill="#8ddcff" opacity="0.16"/>
    </clipPath>
    <radialGradient id="radial-gradient-13" cx="1.093" cy="0.246" r="0.939" gradientTransform="translate(0 0.213) scale(1 0.386)" gradientUnits="objectBoundingBox">
      <stop offset="0" stop-color="#8ddcff"/>
      <stop offset="1" stop-color="#68cfff" stop-opacity="0"/>
    </radialGradient>
    <clipPath id="clip-path-7">
      <path id="mask-7" data-name="mask" d="M70.377,87.294l22.331,25.479V74.493Z" transform="translate(-70.377 -74.493)" fill="none"/>
    </clipPath>
    <radialGradient id="radial-gradient-14" cx="0.5" cy="0.5" r="0.5" gradientUnits="objectBoundingBox">
      <stop offset="0" stop-color="#a4ebff"/>
      <stop offset="1" stop-color="#acedff" stop-opacity="0"/>
    </radialGradient>
    <clipPath id="clip-path-8">
      <path id="mask-8" data-name="mask" d="M80.749,95.962l22.332-12.8L35.616,44.492Z" transform="translate(-35.616 -44.492)" opacity="0.53" fill="url(#radial-gradient)"/>
    </clipPath>
    <radialGradient id="radial-gradient-16" cx="0.5" cy="0.5" r="0.5" gradientUnits="objectBoundingBox">
      <stop offset="0" stop-color="#60dcff"/>
      <stop offset="1" stop-color="#60dcff" stop-opacity="0"/>
    </radialGradient>
  </defs>
  <g id="text" transform="translate(-125.521 -103.115)">
    <path id="Path_14183" data-name="Path 14183" d="M297.276,187.426l-14.792-45.713h-12.2l20.808,59h12.2l20.808-59H312.068Z" transform="translate(0 0)" fill="#3c3c3c"/>
    <rect id="Rectangle_16968" data-name="Rectangle 16968" width="11.199" height="58.498" transform="translate(332.542 141.713)" fill="#3c3c3c"/>
    <path id="Path_14184" data-name="Path 14184" d="M434.5,141.713l-14.457,44.208-14.374-44.208H389.961l-3.009,58.5h10.53l2.09-45.127,14.874,45.21h10.948l14.96-45.043,2.005,44.96h11.114l-3.009-58.5Z" transform="translate(-34.019 0)" fill="#3c3c3c"/>
    <path id="Path_14185" data-name="Path 14185" d="M489.7,218.173h1.648v4.119h1.395v-4.119h1.648V216.96H489.7Z" transform="translate(-63.978 -21.941)" fill="#3c3c3c"/>
    <path id="Path_14186" data-name="Path 14186" d="M501.384,216.96l-1.053,3.387-1.052-3.387H497.4l-.275,5.331h1.3l.16-3.387,1.075,3.387h1.3l1.077-3.387.16,3.387h1.349l-.3-5.331Z" transform="translate(-66.145 -21.941)" fill="#3c3c3c"/>
  </g>
  <g id="_logo-color-mark" data-name="🌕 logo-color-mark">
    <g id="mark">
      <g id="v-full" transform="translate(0.005)" clip-path="url(#clip-path)">
        <path id="fill" d="M103.084,83.159,35.62,44.492l67.465,116,67.465-116Z" transform="translate(-35.619 -44.492)" fill="url(#radial-gradient-2)"/>
        <path id="fill-2" data-name="fill" d="M103.084,83.159,35.62,44.492l67.465,116,67.465-116Z" transform="translate(-35.619 -44.492)" opacity="0.7" fill="url(#radial-gradient-3)"/>
        <path id="fill-3" data-name="fill" d="M103.084,83.159,35.62,44.492l67.465,116,67.465-116Z" transform="translate(-35.619 -44.492)" opacity="0.5" fill="url(#radial-gradient-4)" style="mix-blend-mode: multiply;isolation: isolate"/>
      </g>
      <g id="btm-right-full" transform="translate(67.471)" clip-path="url(#clip-path-2)">
        <path id="fill-4" data-name="fill" d="M87.583,121.439v39.053l67.465-116Z" transform="translate(-87.583 -44.492)" fill="#fff" opacity="0.35" style="mix-blend-mode: overlay;isolation: isolate"/>
        <path id="fill-5" data-name="fill" d="M87.583,121.439v39.053l67.465-116Z" transform="translate(-87.583 -44.492)" fill="#fff" opacity="0.1"/>
        <ellipse id="gradient" cx="20.853" cy="96.904" rx="20.853" ry="96.904" transform="translate(53.178 -44.949) rotate(32)" opacity="0.6" fill="url(#radial-gradient-5)"/>
        <ellipse id="gradient-2" data-name="gradient" cx="9.856" cy="56.851" rx="9.856" ry="56.851" transform="matrix(0.875, 0.485, -0.485, 0.875, 57.275, 1.226)" opacity="0.45" fill="url(#radial-gradient-5)"/>
        <ellipse id="gradient-3" data-name="gradient" cx="30.481" cy="39.961" rx="30.481" ry="39.961" transform="matrix(0.99, 0.139, -0.139, 0.99, -38.289, 49.211)" opacity="0.5" fill="url(#radial-gradient-5)" style="mix-blend-mode: hard-light;isolation: isolate"/>
      </g>
      <path id="btm-right-half" d="M116.181,102.492l-11.394-6.531,45.126-51.469Z" transform="translate(-14.979 -44.491)" fill="#fff" opacity="0.16"/>
      <g id="btm-left-full" transform="translate(0.006)" clip-path="url(#clip-path-3)">
        <path id="fill-6" data-name="fill" d="M103.085,160.492V121.439L35.621,44.493Z" transform="translate(-35.62 -44.492)" fill="#0590cc" opacity="0.5"/>
        <ellipse id="gradient-4" data-name="gradient" cx="16.872" cy="71.045" rx="16.872" ry="71.045" transform="matrix(0.891, -0.454, 0.454, 0.891, -18.937, -7.575)" opacity="0.62" fill="url(#radial-gradient-8)" style="mix-blend-mode: overlay;isolation: isolate"/>
        <ellipse id="gradient-5" data-name="gradient" cx="20.77" cy="56.468" rx="20.77" ry="56.468" transform="matrix(0.891, -0.454, 0.454, 0.891, -19.3, 20.546)" opacity="0.62" fill="url(#radial-gradient-9)"/>
      </g>
      <g id="btm-left-half" transform="translate(0.006)" clip-path="url(#clip-path-4)">
        <path id="fill-7" data-name="fill" d="M69.353,102.492l11.394-6.531L35.621,44.492Z" transform="translate(-35.62 -44.492)" fill="#64daff" opacity="0.08"/>
        <ellipse id="gradient-6" data-name="gradient" cx="38.888" cy="43.318" rx="38.888" ry="43.318" transform="translate(-45.91 -9.485) rotate(-31)" opacity="0.87" fill="url(#radial-gradient-10)"/>
        <ellipse id="gradient-7" data-name="gradient" cx="20.154" cy="26.751" rx="20.154" ry="26.751" transform="translate(11.217 34.337) rotate(-31)" opacity="0.21" fill="url(#radial-gradient-5)"/>
      </g>
      <g id="top-right" transform="translate(67.47 0.001)" clip-path="url(#clip-path-5)">
        <path id="mask-9" data-name="mask" d="M155.046,44.492,87.581,83.159v38.28Z" transform="translate(-87.581 -44.492)" fill="#aee7ff" opacity="0.3"/>
        <ellipse id="gradient-8" data-name="gradient" cx="30.422" cy="49.396" rx="30.422" ry="49.396" transform="matrix(0.629, 0.777, -0.777, 0.629, 25.717, -36.143)" fill="url(#radial-gradient-12)"/>
      </g>
      <g id="top-right-mid" transform="translate(67.476 38.668)" clip-path="url(#clip-path-6)">
        <path id="gradient-9" data-name="gradient" d="M109.918,87.295,87.586,112.772V74.492Z" transform="translate(-87.586 -74.492)" opacity="0.49" fill="url(#radial-gradient-13)"/>
      </g>
      <g id="top-left-mid" transform="translate(45.133 38.668)" clip-path="url(#clip-path-7)">
        <path id="fill-8" data-name="fill" d="M70.378,87.295l22.332,25.477V74.492Z" transform="translate(-70.377 -74.493)" fill="#1ec9ff" opacity="0.2"/>
        <ellipse id="gradient-10" data-name="gradient" cx="27.071" cy="27.31" rx="27.071" ry="27.31" transform="translate(-30.966 -26.497)" opacity="0.67" fill="url(#radial-gradient-14)"/>
        <path id="fill-9" data-name="fill" d="M70.378,87.295l22.332,25.477V74.492Z" transform="translate(-70.377 -74.493)" fill="#fff" opacity="0.1"/>
      </g>
      <g id="top-left" transform="translate(0 0.001)" clip-path="url(#clip-path-8)">
        <path id="top-left-2" data-name="top-left" d="M80.749,95.962l22.332-12.8L35.616,44.492Z" transform="translate(-35.616 -44.492)" opacity="0.3" fill="url(#radial-gradient)"/>
        <path id="top-left-3" data-name="top-left" d="M80.749,95.962l22.332-12.8L35.616,44.492Z" transform="translate(-35.616 -44.492)" fill="#8ed8ff" opacity="0.24" style="mix-blend-mode: screen;isolation: isolate"/>
        <ellipse id="gradient-11" data-name="gradient" cx="27.071" cy="27.31" rx="27.071" ry="27.31" transform="translate(36.238 3.294)" opacity="0.3" fill="url(#radial-gradient-16)"/>
      </g>
    </g>
  </g>
</svg>
