<svg id="VIM" xmlns="http://www.w3.org/2000/svg" width="127.471" height="45" viewBox="0 0 127.471 45">
  <defs>
    <style>
      .cls-1 {
        fill: #fff;
      }
    </style>
  </defs>
  <path id="Path_14183" data-name="Path 14183" class="cls-1" d="M290.871,176.579l-11.282-34.866h-9.306l15.871,45h9.306l15.871-45h-9.178Z" transform="translate(-270.284 -141.713)"/>
  <rect id="Rectangle_16968" data-name="Rectangle 16968" class="cls-1" width="8.541" height="44.617" transform="translate(47.486 0)"/>
  <path id="Path_14184" data-name="Path 14184" class="cls-1" d="M423.22,141.713l-11.027,33.718L401.23,141.713H389.247l-2.295,44.617h8.031l1.594-34.419,11.345,34.482h8.35l11.41-34.355,1.53,34.292h8.477l-2.295-44.617Z" transform="translate(-323.915 -141.713)"/>
  <path id="Path_14185" data-name="Path 14185" class="cls-1" d="M489.7,217.885h1.257v3.141h1.064v-3.141h1.257v-.925H489.7Z" transform="translate(-371.145 -176.303)"/>
  <path id="Path_14186" data-name="Path 14186" class="cls-1" d="M500.374,216.96l-.8,2.583-.8-2.583h-1.431l-.21,4.066h.995l.122-2.583.82,2.583h1l.821-2.583.122,2.583h1.029l-.227-4.066Z" transform="translate(-374.561 -176.303)"/>
</svg>
