<svg xmlns="http://www.w3.org/2000/svg" width="107.643" height="38" viewBox="0 0 107.643 38">
  <g id="text" transform="translate(-270.284 -141.713)">
    <path id="Path_14183" data-name="Path 14183" d="M287.669,171.155l-9.527-29.442h-7.858l13.4,38h7.859l13.4-38H297.2Z" transform="translate(0 0)" fill="#3c3c3c"/>
    <rect id="Rectangle_16968" data-name="Rectangle 16968" width="7.213" height="37.677" transform="translate(310.383 141.713)" fill="#3c3c3c"/>
    <path id="Path_14184" data-name="Path 14184" d="M417.578,141.713l-9.311,28.473-9.258-28.473H388.89l-1.938,37.677h6.782l1.346-29.065,9.58,29.118h7.051l9.635-29.011,1.292,28.957H429.8l-1.938-37.677Z" transform="translate(-63.437 0)" fill="#3c3c3c"/>
    <path id="Path_14185" data-name="Path 14185" d="M489.7,217.741h1.062v2.653h.9v-2.653h1.061v-.781H489.7Z" transform="translate(-119.303 -40.915)" fill="#3c3c3c"/>
    <path id="Path_14186" data-name="Path 14186" d="M499.869,216.96l-.678,2.181-.677-2.181h-1.209l-.177,3.434h.84l.1-2.181.692,2.181h.84l.694-2.181.1,2.181h.869l-.192-3.434Z" transform="translate(-123.343 -40.915)" fill="#3c3c3c"/>
  </g>
</svg>
